# xmcd
# 
# Track frame offsets:
#     150
#     19275
#     33370
#     56320
#     71395
#     81745
#     89545
#     112945
#     126970
#     138890
# 
# Disc length: 2118
# 
# Revision: 1
# Processed by: cddbd v1.5.2PL0 Copyright (c) Steve Scherf et al.
# Submitted via: fre:ac v1.0.31
# 
DISCID=8308440a
DTITLE=Various Artist - 日劇聖經 CD4
DYEAR=0
DGENRE=Soundtrack
TTITLE0=西村由紀江/ 「別れの曲」ETUDE,Op.13, No.3 - 101次求婚配樂
TTITLE1=日向敏文/Good Evening, Heartache - 東京愛情故事配樂
TTITLE2=S.E.N.S/風のように - 愛情白皮書配樂
TTITLE3=A WINTER STORY - 情書配樂
TTITLE4=日向大介/Close to you ～セナのピアノII～ - 長假配樂
TTITLE5=日向大介/ture ture, piano version - 戀愛世代配樂
TTITLE6=長谷川天/ONCE IN A BLUE MOON - 網路情人配樂
TTITLE7=S.E.N.S/なぜ... - P.S.我很好。俊平配樂
TTITLE8=Moon Light Love - to Heart~世紀末戀愛預言配樂
TTITLE9=The Color Of Eternal Love - 冰的世界配樂
EXTD=
EXTT0=
EXTT1=
EXTT2=
EXTT3=
EXTT4=
EXTT5=
EXTT6=
EXTT7=
EXTT8=
EXTT9=
PLAYORDER=
